<?xml version="1.0" encoding="UTF-8" standalone="no"?>
<!-- Generator: Adobe Illustrator 16.0.0, SVG Export Plug-In . SVG Version: 6.00 Build 0)  -->

<svg
   xmlns:dc="http://purl.org/dc/elements/1.1/"
   xmlns:cc="http://creativecommons.org/ns#"
   xmlns:rdf="http://www.w3.org/1999/02/22-rdf-syntax-ns#"
   xmlns:svg="http://www.w3.org/2000/svg"
   xmlns="http://www.w3.org/2000/svg"
   xmlns:sodipodi="http://sodipodi.sourceforge.net/DTD/sodipodi-0.dtd"
   xmlns:inkscape="http://www.inkscape.org/namespaces/inkscape"
   version="1.1"
   id="Layer_1"
   x="0px"
   y="0px"
   width="345.04922"
   height="97.715477"
   viewBox="0 0 345.04923 97.71548"
   enable-background="new 0 0 566.93 283.46"
   xml:space="preserve"
   sodipodi:docname="Nunet text Light background.svg"
   inkscape:version="0.92.3 (2405546, 2018-03-11)"><metadata
   id="metadata239"><rdf:RDF><cc:Work
       rdf:about=""><dc:format>image/svg+xml</dc:format><dc:type
         rdf:resource="http://purl.org/dc/dcmitype/StillImage" /><dc:title></dc:title></cc:Work></rdf:RDF></metadata><defs
   id="defs237" /><sodipodi:namedview
   pagecolor="#ffffff"
   bordercolor="#666666"
   borderopacity="1"
   objecttolerance="10"
   gridtolerance="10"
   guidetolerance="10"
   inkscape:pageopacity="0"
   inkscape:pageshadow="2"
   inkscape:window-width="2007"
   inkscape:window-height="961"
   id="namedview235"
   showgrid="false"
   fit-margin-top="0"
   fit-margin-left="0"
   fit-margin-right="0"
   fit-margin-bottom="0"
   inkscape:zoom="1.7062461"
   inkscape:cx="265.80943"
   inkscape:cy="32.248051"
   inkscape:window-x="0"
   inkscape:window-y="27"
   inkscape:window-maximized="0"
   inkscape:current-layer="Layer_1" />
<g
   id="g232"
   transform="translate(-111.29577,-92.87521)">
	<g
   id="g218">
		<path
   d="m 152.972,128.064 c -4.946,0 -8.958,4.01 -8.958,8.955 0,4.945 4.012,8.957 8.958,8.957 4.946,0 8.957,-4.012 8.957,-8.957 0,-4.945 -4.011,-8.955 -8.957,-8.955 z m 0,13.178 c -2.332,0 -4.224,-1.891 -4.224,-4.223 0,-2.332 1.892,-4.223 4.224,-4.223 2.331,0 4.224,1.891 4.224,4.223 0,2.332 -1.893,4.223 -4.224,4.223 z"
   id="path2"
   inkscape:connector-curvature="0"
   style="opacity:0.4;fill:#2f9bd6" />
		<g
   id="g16">
			<path
   d="m 197.611,135.652 -9.119,4.089 -26.566,-2.655 c -0.004,0.429 -0.045,0.848 -0.105,1.26 l 26.942,7.119 7.299,5.279 c 2.167,1.564 4.161,0.67 4.434,-1.988 L 201.55,138.5 c 0.273,-2.66 -1.499,-3.939 -3.939,-2.848 z m 0.755,4.889 -0.548,5.324 c -0.142,1.377 -1.178,1.844 -2.301,1.031 l -4.338,-3.137 c -1.124,-0.813 -1.007,-1.939 0.258,-2.506 l 4.885,-2.191 c 1.264,-0.564 2.185,0.1 2.044,1.479 z"
   id="path4"
   inkscape:connector-curvature="0"
   style="fill:#00a79d" />
			<path
   d="m 195.398,141.199 -2.301,1.031 c -0.594,0.268 -0.65,0.799 -0.118,1.18 l 2.04,1.477 c 0.529,0.383 1.018,0.164 1.082,-0.486 l 0.259,-2.506 c 0.067,-0.651 -0.366,-0.961 -0.962,-0.696 z"
   id="path6"
   inkscape:connector-curvature="0"
   style="fill:#00a79d" />
			<path
   d="m 123.233,119.752 3.508,0.363 c 0.908,0.094 1.347,-0.512 0.974,-1.346 l -1.439,-3.219 c -0.373,-0.834 -1.116,-0.91 -1.652,-0.172 l -2.067,2.857 c -0.537,0.74 -0.233,1.423 0.676,1.517 z"
   id="path8"
   inkscape:connector-curvature="0"
   style="fill:#00a79d" />
			<path
   d="m 117.605,125.256 12.705,1.317 14.745,6.262 c 0.351,-0.661 0.784,-1.267 1.282,-1.816 l -11.391,-11.715 -4.975,-11.124 c -1.516,-3.393 -4.539,-3.701 -6.719,-0.695 l -8.404,11.611 c -2.175,3.006 -0.936,5.781 2.757,6.16 z m 2.102,-6.74 4.361,-6.029 c 1.131,-1.559 2.699,-1.398 3.488,0.363 l 3.034,6.789 c 0.786,1.758 -0.138,3.037 -2.054,2.84 l -7.402,-0.766 c -1.915,-0.199 -2.558,-1.639 -1.427,-3.197 z"
   id="path10"
   inkscape:connector-curvature="0"
   style="fill:#00a79d" />
			<path
   d="m 121.517,150.146 -2.937,-0.375 c -0.76,-0.098 -1.141,0.4 -0.846,1.109 l 1.143,2.73 c 0.297,0.707 0.919,0.787 1.384,0.176 l 1.792,-2.354 c 0.467,-0.608 0.224,-1.186 -0.536,-1.286 z"
   id="path12"
   inkscape:connector-curvature="0"
   style="fill:#00a79d" />
			<path
   d="m 144.522,139.97 -18.554,5.993 -10.957,-1.4 c -2.988,-0.387 -4.484,1.576 -3.32,4.357 l 4.484,10.73 c 1.167,2.779 3.612,3.092 5.438,0.693 l 6.99,-9.174 16.515,-9.843 c -0.235,-0.43 -0.43,-0.887 -0.596,-1.356 z m -20.125,11.218 -3.659,4.799 c -0.945,1.242 -2.217,1.082 -2.82,-0.357 l -2.328,-5.572 c -0.604,-1.443 0.171,-2.459 1.723,-2.26 l 5.988,0.764 c 1.549,0.2 2.045,1.379 1.096,2.626 z"
   id="path14"
   inkscape:connector-curvature="0"
   style="fill:#00a79d" />
		</g>
		<g
   id="g30">
			<circle
   cx="146.698"
   cy="113.031"
   r="1.84"
   id="circle18"
   style="fill:#1583b5" />
			<path
   d="m 149.73,128.679 c 0.63,-0.245 1.293,-0.419 1.982,-0.516 l -1.027,-8.659 c 2.172,-1.343 3.626,-3.739 3.626,-6.475 0,-4.197 -3.415,-7.611 -7.613,-7.611 -4.198,0 -7.614,3.414 -7.614,7.611 0,4.005 3.108,7.29 7.039,7.586 z m -7.799,-15.65 c 0,-2.627 2.138,-4.766 4.768,-4.766 2.629,0 4.767,2.139 4.767,4.766 0,2.631 -2.138,4.77 -4.767,4.77 -2.631,0 -4.768,-2.139 -4.768,-4.77 z"
   id="path20"
   inkscape:connector-curvature="0"
   style="fill:#1583b5" />
			<circle
   cx="201.161"
   cy="162.82001"
   r="1.84"
   id="circle22"
   style="fill:#1583b5" />
			<path
   d="m 201.161,154.85 c -2.427,0 -4.601,1.094 -6.063,2.811 l -33.531,-18.133 c -0.102,0.348 -0.22,0.688 -0.361,1.018 l 31.991,22.155 c -0.001,0.04 -0.006,0.079 -0.006,0.12 0,4.395 3.575,7.969 7.971,7.969 4.395,0 7.97,-3.574 7.97,-7.969 0,-4.395 -3.576,-7.971 -7.971,-7.971 z m 0,12.38 c -2.434,0 -4.411,-1.979 -4.411,-4.41 0,-2.434 1.978,-4.412 4.411,-4.412 2.431,0 4.411,1.979 4.411,4.412 0,2.432 -1.98,4.41 -4.411,4.41 z"
   id="path24"
   inkscape:connector-curvature="0"
   style="fill:#1583b5" />
			<path
   d="m 155.516,151.909 -1.162,-6.05 c -0.451,0.07 -0.91,0.117 -1.382,0.117 -0.353,0 -0.698,-0.025 -1.04,-0.065 l -1.036,5.908 c -3.103,0.937 -5.37,3.818 -5.37,7.224 0,4.162 3.386,7.549 7.548,7.549 4.161,0 7.549,-3.387 7.549,-7.549 -10e-4,-3.307 -2.142,-6.115 -5.107,-7.134 z m -2.443,11.124 c -2.198,0 -3.989,-1.789 -3.989,-3.99 0,-2.199 1.791,-3.988 3.989,-3.988 2.2,0 3.99,1.789 3.99,3.988 0,2.201 -1.79,3.99 -3.99,3.99 z"
   id="path26"
   inkscape:connector-curvature="0"
   style="fill:#1583b5" />
			<circle
   cx="153.073"
   cy="159.045"
   r="1.84"
   id="circle28"
   style="fill:#1583b5" />
		</g>
		<g
   id="g44">
			<path
   d="m 155.582,106.84 -1.717,21.27 c 0.42,0.042 0.829,0.121 1.23,0.219 l 5.342,-20.733 2.973,-0.976 c 1.068,-0.35 2.133,-1.535 2.363,-2.637 l 0.856,-4.088 c 0.231,-1.102 -0.264,-2.615 -1.103,-3.365 l -3.109,-2.787 c -0.839,-0.75 -2.4,-1.076 -3.467,-0.729 l -3.969,1.303 c -1.069,0.35 -2.133,1.537 -2.363,2.639 l -0.856,4.086 c -0.232,1.102 0.264,2.617 1.102,3.365 z m -1.118,-6.686 0.274,-1.301 c 0.23,-1.102 1.293,-2.289 2.363,-2.639 l 1.264,-0.416 c 1.07,-0.35 2.629,-0.023 3.469,0.729 l 0.989,0.889 c 0.839,0.75 1.335,2.264 1.104,3.365 l -0.275,1.301 c -0.229,1.102 -1.293,2.289 -2.362,2.641 l -1.264,0.416 c -1.067,0.35 -2.629,0.023 -3.469,-0.729 l -0.989,-0.889 c -0.839,-0.751 -1.335,-2.263 -1.104,-3.367 z"
   id="path32"
   inkscape:connector-curvature="0"
   style="fill:#2f9bd6" />
			<path
   d="m 194.668,124.248 c -0.25,-0.207 -0.703,-0.285 -1.008,-0.172 l -1.13,0.418 c -0.305,0.111 -0.599,0.465 -0.652,0.785 l -0.204,1.186 c -0.055,0.32 0.104,0.752 0.354,0.959 l 0.926,0.77 c 0.25,0.207 0.702,0.285 1.007,0.172 l 1.13,-0.416 c 0.305,-0.113 0.599,-0.467 0.652,-0.785 l 0.204,-1.188 c 0.056,-0.32 -0.104,-0.75 -0.354,-0.959 z"
   id="path34"
   inkscape:connector-curvature="0"
   style="fill:#2f9bd6" />
			<path
   d="m 158.236,102.473 c 0.25,0.223 0.715,0.32 1.033,0.217 l 1.182,-0.389 c 0.318,-0.104 0.635,-0.457 0.704,-0.785 l 0.256,-1.219 c 0.068,-0.328 -0.079,-0.779 -0.329,-1.002 l -0.927,-0.83 c -0.249,-0.225 -0.714,-0.32 -1.032,-0.217 l -1.183,0.387 c -0.318,0.105 -0.635,0.459 -0.704,0.787 l -0.255,1.217 c -0.069,0.328 0.078,0.779 0.328,1.004 z"
   id="path36"
   inkscape:connector-curvature="0"
   style="fill:#2f9bd6" />
			<path
   d="m 190.294,167.92 c -1.183,-1.467 -3.671,-2.424 -5.53,-2.131 l -4.664,0.732 -20.968,-23.012 c -0.353,0.335 -0.729,0.646 -1.132,0.922 l 15.168,26.38 -2.428,6.306 c -0.678,1.756 -0.264,4.391 0.92,5.854 l 4.389,5.436 c 1.184,1.465 3.673,2.424 5.532,2.131 l 6.901,-1.084 c 1.86,-0.293 3.936,-1.969 4.611,-3.725 l 2.511,-6.52 c 0.677,-1.758 0.263,-4.391 -0.92,-5.855 z m 0.61,12.029 -0.803,2.076 c -0.675,1.758 -2.75,3.434 -4.609,3.725 l -2.199,0.346 c -1.861,0.293 -4.35,-0.666 -5.533,-2.131 l -1.398,-1.73 c -1.184,-1.465 -1.598,-4.1 -0.921,-5.857 l 0.801,-2.078 c 0.677,-1.758 2.75,-3.432 4.61,-3.723 l 2.201,-0.346 c 1.86,-0.293 4.349,0.666 5.533,2.131 l 1.396,1.73 c 1.184,1.465 1.597,4.099 0.922,5.857 z"
   id="path38"
   inkscape:connector-curvature="0"
   style="fill:#2f9bd6" />
			<path
   d="m 199.993,122.051 -3.212,-2.67 c -0.866,-0.719 -2.436,-0.988 -3.491,-0.6 l -3.917,1.447 c -1.057,0.391 -2.076,1.615 -2.265,2.723 l -0.526,3.066 c -4.32,1.373 -18.301,5.938 -25.119,8.168 0.115,0.346 0.216,0.699 0.289,1.063 l 26.339,-4.474 2.749,2.285 c 0.863,0.719 2.435,0.988 3.49,0.6 l 3.917,-1.447 c 1.058,-0.391 2.076,-1.615 2.264,-2.723 l 0.708,-4.117 c 0.189,-1.106 -0.363,-2.602 -1.226,-3.321 z m -2.115,4.289 -0.194,1.125 c -0.162,0.953 -1.036,2.004 -1.942,2.34 l -1.071,0.393 c -0.905,0.336 -2.254,0.104 -2.998,-0.512 l -0.878,-0.73 c -0.743,-0.617 -1.217,-1.9 -1.053,-2.854 l 0.194,-1.125 c 0.162,-0.953 1.036,-2.004 1.943,-2.34 l 1.07,-0.393 c 0.906,-0.336 2.254,-0.105 2.998,0.514 l 0.878,0.729 c 0.743,0.618 1.218,1.9 1.053,2.853 z"
   id="path40"
   inkscape:connector-curvature="0"
   style="fill:#2f9bd6" />
			<path
   d="m 185.156,175.311 c -0.329,-0.408 -1.023,-0.676 -1.541,-0.594 l -1.922,0.301 c -0.518,0.082 -1.096,0.549 -1.284,1.037 l -0.699,1.816 c -0.188,0.49 -0.073,1.223 0.255,1.631 l 1.224,1.514 c 0.329,0.408 1.023,0.676 1.541,0.594 l 1.921,-0.303 c 0.52,-0.08 1.097,-0.547 1.285,-1.037 l 0.699,-1.814 c 0.188,-0.49 0.074,-1.225 -0.256,-1.631 z"
   id="path42"
   inkscape:connector-curvature="0"
   style="fill:#2f9bd6" />
		</g>
		<g
   id="g58">
			<path
   d="m 129.747,137.184 c 0.421,0.564 1.222,0.678 1.784,0.256 l 0.892,-0.666 c 0.563,-0.424 0.678,-1.223 0.255,-1.787 l -0.668,-0.891 c -0.421,-0.563 -1.222,-0.676 -1.784,-0.254 l -0.89,0.668 c -0.564,0.422 -0.678,1.221 -0.256,1.785 z"
   id="path46"
   inkscape:connector-curvature="0"
   style="fill:#1459a4" />
			<path
   d="m 127.206,140.652 c 1.371,1.83 3.967,2.201 5.796,0.828 l 2.89,-2.166 c 0.118,-0.088 0.212,-0.194 0.317,-0.292 l 7.848,-1.18 c -0.025,-0.271 -0.043,-0.546 -0.043,-0.823 0,-0.541 0.057,-1.069 0.149,-1.584 l -7.218,-1.545 c -0.074,-0.125 -0.137,-0.254 -0.227,-0.373 l -2.167,-2.889 c -1.37,-1.83 -3.966,-2.199 -5.794,-0.828 l -2.891,2.166 c -1.829,1.371 -2.199,3.967 -0.828,5.795 z m 0.653,-7.224 1.741,-1.305 c 1.103,-0.828 2.665,-0.604 3.492,0.5 l 1.306,1.738 c 0.825,1.102 0.604,2.666 -0.5,3.492 l -1.741,1.305 c -1.102,0.826 -2.664,0.604 -3.489,-0.498 l -1.307,-1.74 c -0.827,-1.104 -0.603,-2.664 0.498,-3.492 z"
   id="path48"
   inkscape:connector-curvature="0"
   style="fill:#1459a4" />
			<path
   d="m 139.712,163.795 c -0.046,-0.683 -0.218,-1.325 -0.479,-1.916 l 9.356,-17.053 c -0.45,-0.253 -0.877,-0.541 -1.274,-0.865 l -13.053,14.535 c -0.203,-0.008 -0.408,-0.006 -0.616,0.008 l -4.955,0.338 c -3.136,0.215 -5.505,2.93 -5.292,6.068 l 0.34,4.953 c 0.213,3.137 2.93,5.506 6.067,5.291 l 4.954,-0.338 c 3.136,-0.215 5.505,-2.932 5.291,-6.068 z m -6.159,7.846 -2.984,0.203 c -1.89,0.129 -3.525,-1.297 -3.654,-3.188 l -0.204,-2.984 c -0.129,-1.889 1.297,-3.525 3.188,-3.654 l 2.983,-0.203 c 1.889,-0.129 3.526,1.297 3.654,3.188 l 0.205,2.984 c 0.128,1.888 -1.299,3.525 -3.188,3.654 z"
   id="path50"
   inkscape:connector-curvature="0"
   style="fill:#1459a4" />
			<path
   d="m 175.375,106.682 h -6.181 c -3.913,0 -7.085,3.172 -7.085,7.086 v 6.18 c 0,0.548 0.068,1.078 0.186,1.59 l -4.429,7.988 c 0.861,0.563 1.614,1.273 2.235,2.091 l 8.734,-4.601 c 0.12,0.006 0.238,0.018 0.358,0.018 h 6.181 c 3.913,0 7.085,-3.172 7.085,-7.086 v -6.18 c 0.001,-3.914 -3.171,-7.086 -7.084,-7.086 z m 3.992,12.326 c 0,2.725 -2.208,4.934 -4.932,4.934 h -4.303 c -2.724,0 -4.932,-2.209 -4.932,-4.934 v -4.301 c 0,-2.725 2.208,-4.932 4.932,-4.932 h 4.303 c 2.724,0 4.932,2.207 4.932,4.932 z"
   id="path52"
   inkscape:connector-curvature="0"
   style="fill:#1459a4" />
			<path
   d="m 173.173,113.932 h -1.776 c -1.125,0 -2.037,0.912 -2.037,2.037 v 1.777 c 0,1.125 0.912,2.037 2.037,2.037 h 1.776 c 1.125,0 2.037,-0.912 2.037,-2.037 v -1.777 c 0,-1.125 -0.912,-2.037 -2.037,-2.037 z"
   id="path54"
   inkscape:connector-curvature="0"
   style="fill:#1459a4" />
			<path
   d="m 132.316,164.266 -1.526,0.104 c -0.965,0.066 -1.695,0.902 -1.629,1.869 l 0.104,1.525 c 0.065,0.965 0.902,1.695 1.867,1.629 l 1.526,-0.104 c 0.966,-0.066 1.695,-0.902 1.63,-1.869 l -0.104,-1.525 c -0.066,-0.965 -0.902,-1.696 -1.868,-1.629 z"
   id="path56"
   inkscape:connector-curvature="0"
   style="fill:#1459a4" />
		</g>
		<g
   id="g216">
			<linearGradient
   id="SVGID_1_"
   gradientUnits="userSpaceOnUse"
   x1="165.07179"
   y1="136.0229"
   x2="192.4735"
   y2="163.4247">
				<stop
   offset="0.0054"
   style="stop-color:#005A66"
   id="stop60" />
				<stop
   offset="0.0654"
   style="stop-color:#005B67;stop-opacity:0.9203"
   id="stop62" />
				<stop
   offset="0.3166"
   style="stop-color:#005C6D;stop-opacity:0.5865"
   id="stop64" />
				<stop
   offset="0.5531"
   style="stop-color:#005D6F;stop-opacity:0.2722"
   id="stop66" />
				<stop
   offset="0.7581"
   style="stop-color:#005D70;stop-opacity:0"
   id="stop68" />
			</linearGradient>
			<path
   d="m 161.566,139.527 c -0.102,0.348 -0.22,0.688 -0.361,1.018 l 31.991,22.155 c 0.029,-1.921 0.739,-3.677 1.901,-5.04 z"
   id="path71"
   inkscape:connector-curvature="0"
   style="fill:url(#SVGID_1_)" />
			<linearGradient
   id="SVGID_2_"
   gradientUnits="userSpaceOnUse"
   x1="155.44189"
   y1="147.1748"
   x2="178.28101"
   y2="168.4726">
				<stop
   offset="0.0054"
   style="stop-color:#005A66"
   id="stop73" />
				<stop
   offset="0.0654"
   style="stop-color:#005B67;stop-opacity:0.9203"
   id="stop75" />
				<stop
   offset="0.3166"
   style="stop-color:#005C6D;stop-opacity:0.5865"
   id="stop77" />
				<stop
   offset="0.5531"
   style="stop-color:#005D6F;stop-opacity:0.2722"
   id="stop79" />
				<stop
   offset="0.7581"
   style="stop-color:#005D70;stop-opacity:0"
   id="stop81" />
			</linearGradient>
			<path
   d="m 159.132,143.51 c -0.353,0.335 -0.729,0.646 -1.132,0.922 l 15.168,26.38 0.082,-0.216 c 0.677,-1.754 2.752,-3.432 4.611,-3.723 l 2.238,-0.352 z"
   id="path84"
   inkscape:connector-curvature="0"
   style="fill:url(#SVGID_2_)" />
			<linearGradient
   id="SVGID_3_"
   gradientUnits="userSpaceOnUse"
   x1="153.2061"
   y1="145.85941"
   x2="153.2061"
   y2="151.90919">
				<stop
   offset="0.0054"
   style="stop-color:#005A66"
   id="stop86" />
				<stop
   offset="0.0654"
   style="stop-color:#005B67;stop-opacity:0.9203"
   id="stop88" />
				<stop
   offset="0.3166"
   style="stop-color:#005C6D;stop-opacity:0.5865"
   id="stop90" />
				<stop
   offset="0.5531"
   style="stop-color:#005D6F;stop-opacity:0.2722"
   id="stop92" />
				<stop
   offset="0.7581"
   style="stop-color:#005D70;stop-opacity:0"
   id="stop94" />
			</linearGradient>
			<path
   d="m 152.972,145.977 c -0.353,0 -0.698,-0.025 -1.04,-0.065 l -1.036,5.908 c 0.69,-0.208 1.421,-0.323 2.178,-0.323 0.855,0 1.677,0.149 2.443,0.413 l -1.163,-6.05 c -0.452,0.07 -0.911,0.117 -1.382,0.117 z"
   id="path97"
   inkscape:connector-curvature="0"
   style="fill:url(#SVGID_3_)" />
			<linearGradient
   id="SVGID_4_"
   gradientUnits="userSpaceOnUse"
   x1="141.42529"
   y1="143.96091"
   x2="141.42529"
   y2="161.87891">
				<stop
   offset="0.0054"
   style="stop-color:#005A66"
   id="stop99" />
				<stop
   offset="0.0654"
   style="stop-color:#005B67;stop-opacity:0.9203"
   id="stop101" />
				<stop
   offset="0.3166"
   style="stop-color:#005C6D;stop-opacity:0.5865"
   id="stop103" />
				<stop
   offset="0.5531"
   style="stop-color:#005D6F;stop-opacity:0.2722"
   id="stop105" />
				<stop
   offset="0.7581"
   style="stop-color:#005D70;stop-opacity:0"
   id="stop107" />
			</linearGradient>
			<path
   d="m 147.314,143.961 -13.053,14.535 c 2.2,0.086 4.107,1.437 4.971,3.383 l 9.356,-17.053 c -0.449,-0.253 -0.876,-0.541 -1.274,-0.865 z"
   id="path110"
   inkscape:connector-curvature="0"
   style="fill:url(#SVGID_4_)" />
			<linearGradient
   id="SVGID_5_"
   gradientUnits="userSpaceOnUse"
   x1="145.70799"
   y1="143.38091"
   x2="124.7461"
   y2="149.3916">
				<stop
   offset="0.0054"
   style="stop-color:#005A66"
   id="stop112" />
				<stop
   offset="0.0654"
   style="stop-color:#005B67;stop-opacity:0.9203"
   id="stop114" />
				<stop
   offset="0.3166"
   style="stop-color:#005C6D;stop-opacity:0.5865"
   id="stop116" />
				<stop
   offset="0.5531"
   style="stop-color:#005D6F;stop-opacity:0.2722"
   id="stop118" />
				<stop
   offset="0.7581"
   style="stop-color:#005D70;stop-opacity:0"
   id="stop120" />
			</linearGradient>
			<path
   d="m 144.522,139.97 -20.572,6.646 c 0.762,0.896 1.698,5 1.85,6.227 l 19.319,-11.515 c -0.236,-0.432 -0.431,-0.888 -0.597,-1.358 z"
   id="path123"
   inkscape:connector-curvature="0"
   style="fill:url(#SVGID_5_)" />
			<linearGradient
   id="SVGID_6_"
   gradientUnits="userSpaceOnUse"
   x1="144.1631"
   y1="136.4565"
   x2="136.209"
   y2="136.4565">
				<stop
   offset="0.0054"
   style="stop-color:#005A66"
   id="stop125" />
				<stop
   offset="0.0654"
   style="stop-color:#005B67;stop-opacity:0.9203"
   id="stop127" />
				<stop
   offset="0.3166"
   style="stop-color:#005C6D;stop-opacity:0.5865"
   id="stop129" />
				<stop
   offset="0.5531"
   style="stop-color:#005D6F;stop-opacity:0.2722"
   id="stop131" />
				<stop
   offset="0.7581"
   style="stop-color:#005D70;stop-opacity:0"
   id="stop133" />
			</linearGradient>
			<path
   d="m 144.057,137.843 c -0.025,-0.271 -0.043,-0.546 -0.043,-0.823 0,-0.541 0.057,-1.069 0.149,-1.584 l -7.219,-1.545 c 0.999,1.673 0.693,3.807 -0.735,5.132 z"
   id="path136"
   inkscape:connector-curvature="0"
   style="fill:url(#SVGID_6_)" />
			<linearGradient
   id="SVGID_7_"
   gradientUnits="userSpaceOnUse"
   x1="147.0728"
   y1="129.36909"
   x2="132.0448"
   y2="122.6782">
				<stop
   offset="0.0054"
   style="stop-color:#005A66"
   id="stop138" />
				<stop
   offset="0.0654"
   style="stop-color:#005B67;stop-opacity:0.9203"
   id="stop140" />
				<stop
   offset="0.3166"
   style="stop-color:#005C6D;stop-opacity:0.5865"
   id="stop142" />
				<stop
   offset="0.5531"
   style="stop-color:#005D6F;stop-opacity:0.2722"
   id="stop144" />
				<stop
   offset="0.7581"
   style="stop-color:#005D70;stop-opacity:0"
   id="stop146" />
			</linearGradient>
			<path
   d="m 146.338,131.019 -11.391,-11.715 0.875,1.958 c 1.516,3.389 -0.264,5.852 -3.959,5.473 l -1.553,-0.161 14.745,6.262 c 0.351,-0.662 0.785,-1.268 1.283,-1.817 z"
   id="path149"
   inkscape:connector-curvature="0"
   style="fill:url(#SVGID_7_)" />
			<linearGradient
   id="SVGID_8_"
   gradientUnits="userSpaceOnUse"
   x1="148.34331"
   y1="128.4839"
   x2="149.62621"
   y2="119.3553">
				<stop
   offset="0.0054"
   style="stop-color:#005A66"
   id="stop151" />
				<stop
   offset="0.0654"
   style="stop-color:#005B67;stop-opacity:0.9203"
   id="stop153" />
				<stop
   offset="0.3166"
   style="stop-color:#005C6D;stop-opacity:0.5865"
   id="stop155" />
				<stop
   offset="0.5531"
   style="stop-color:#005D6F;stop-opacity:0.2722"
   id="stop157" />
				<stop
   offset="0.7581"
   style="stop-color:#005D70;stop-opacity:0"
   id="stop159" />
			</linearGradient>
			<path
   d="m 151.713,128.163 -1.027,-8.659 c -1.16,0.719 -2.524,1.141 -3.987,1.141 -0.194,0 -0.385,-0.015 -0.575,-0.029 l 3.607,8.063 c 0.629,-0.245 1.292,-0.419 1.982,-0.516 z"
   id="path162"
   inkscape:connector-curvature="0"
   style="fill:url(#SVGID_8_)" />
			<linearGradient
   id="SVGID_9_"
   gradientUnits="userSpaceOnUse"
   x1="149.7466"
   y1="125.0049"
   x2="161.98621"
   y2="108.7623">
				<stop
   offset="0.0054"
   style="stop-color:#005A66"
   id="stop164" />
				<stop
   offset="0.0654"
   style="stop-color:#005B67;stop-opacity:0.9203"
   id="stop166" />
				<stop
   offset="0.3166"
   style="stop-color:#005C6D;stop-opacity:0.5865"
   id="stop168" />
				<stop
   offset="0.5531"
   style="stop-color:#005D6F;stop-opacity:0.2722"
   id="stop170" />
				<stop
   offset="0.7581"
   style="stop-color:#005D70;stop-opacity:0"
   id="stop172" />
			</linearGradient>
			<path
   d="m 155.096,128.328 5.34,-20.733 -0.994,0.327 c -1.066,0.35 -2.629,0.021 -3.465,-0.729 l -0.393,-0.353 -1.719,21.269 c 0.42,0.042 0.828,0.121 1.231,0.219 z"
   id="path175"
   inkscape:connector-curvature="0"
   style="fill:url(#SVGID_9_)" />
			<linearGradient
   id="SVGID_10_"
   gradientUnits="userSpaceOnUse"
   x1="157.7524"
   y1="129.3506"
   x2="166.61459"
   y2="123.5954">
				<stop
   offset="0.0054"
   style="stop-color:#005A66"
   id="stop177" />
				<stop
   offset="0.0654"
   style="stop-color:#005B67;stop-opacity:0.9203"
   id="stop179" />
				<stop
   offset="0.3166"
   style="stop-color:#005C6D;stop-opacity:0.5865"
   id="stop181" />
				<stop
   offset="0.5531"
   style="stop-color:#005D6F;stop-opacity:0.2722"
   id="stop183" />
				<stop
   offset="0.7581"
   style="stop-color:#005D70;stop-opacity:0"
   id="stop185" />
			</linearGradient>
			<path
   d="m 160.102,131.616 8.734,-4.601 c -3.204,-0.161 -5.845,-2.444 -6.541,-5.479 l -4.429,7.988 c 0.862,0.565 1.614,1.275 2.236,2.092 z"
   id="path188"
   inkscape:connector-curvature="0"
   style="fill:url(#SVGID_10_)" />
			<linearGradient
   id="SVGID_11_"
   gradientUnits="userSpaceOnUse"
   x1="161.46291"
   y1="130.6333"
   x2="188.09081"
   y2="130.6333">
				<stop
   offset="0.0054"
   style="stop-color:#005A66"
   id="stop190" />
				<stop
   offset="0.0654"
   style="stop-color:#005B67;stop-opacity:0.9203"
   id="stop192" />
				<stop
   offset="0.3166"
   style="stop-color:#005C6D;stop-opacity:0.5865"
   id="stop194" />
				<stop
   offset="0.5531"
   style="stop-color:#005D6F;stop-opacity:0.2722"
   id="stop196" />
				<stop
   offset="0.7581"
   style="stop-color:#005D70;stop-opacity:0"
   id="stop198" />
			</linearGradient>
			<path
   d="m 186.584,126.018 c -4.322,1.374 -18.303,5.938 -25.121,8.168 0.115,0.346 0.216,0.699 0.289,1.063 l 26.339,-4.474 -0.463,-0.385 c -0.864,-0.719 -1.417,-2.215 -1.226,-3.322 z"
   id="path201"
   inkscape:connector-curvature="0"
   style="fill:url(#SVGID_11_)" />
			<linearGradient
   id="SVGID_12_"
   gradientUnits="userSpaceOnUse"
   x1="162.375"
   y1="142.8687"
   x2="188.48219"
   y2="139.6631">
				<stop
   offset="0.0054"
   style="stop-color:#005A66"
   id="stop203" />
				<stop
   offset="0.0654"
   style="stop-color:#005B67;stop-opacity:0.9203"
   id="stop205" />
				<stop
   offset="0.3166"
   style="stop-color:#005C6D;stop-opacity:0.5865"
   id="stop207" />
				<stop
   offset="0.5531"
   style="stop-color:#005D6F;stop-opacity:0.2722"
   id="stop209" />
				<stop
   offset="0.7581"
   style="stop-color:#005D70;stop-opacity:0"
   id="stop211" />
			</linearGradient>
			<path
   d="m 188.201,139.871 0.291,-0.13 -26.566,-2.655 c -0.004,0.429 -0.045,0.848 -0.105,1.26 l 26.942,7.12 -1.057,-0.765 c -2.166,-1.564 -1.942,-3.738 0.495,-4.83 z"
   id="path214"
   inkscape:connector-curvature="0"
   style="fill:url(#SVGID_12_)" />
		</g>
	</g>
	<g
   id="g230">
		<path
   d="m 225.122,158.12 h -2.151 v -32.688 h 2.39 c 7.313,0 9.463,2.771 19.308,15.866 9.367,12.378 10.992,14.72 16.822,14.72 h 0.717 v -30.586 h 2.15 v 32.688 h -2.342 c -7.168,0 -9.318,-2.724 -19.068,-15.532 -9.797,-12.903 -11.326,-15.006 -17.108,-15.006 h -0.717 v 30.538 z"
   id="path220"
   inkscape:connector-curvature="0" />
		<path
   d="m 273.967,125.432 h 2.103 v 17.396 c 0,10.132 4.158,13.62 17.301,13.62 13.285,0 17.396,-3.488 17.396,-13.62 v -17.396 h 2.15 v 17.396 c 0,11.422 -5.018,15.723 -19.546,15.723 -13.955,0 -19.403,-3.966 -19.403,-15.723 v -17.396 z"
   id="path222"
   inkscape:connector-curvature="0" />
		<path
   d="m 328.451,158.12 h -6.834 v -32.688 h 4.826 c 8.794,0 11.184,2.819 19.451,14.241 7.79,10.753 8.363,11.518 11.899,11.518 h 0.048 v -25.759 h 6.834 v 32.688 h -4.826 c -8.077,0 -10.515,-2.581 -19.451,-14.289 -8.363,-10.944 -8.603,-11.47 -11.899,-11.47 h -0.048 z"
   id="path224"
   inkscape:connector-curvature="0" />
		<path
   d="m 387.094,131.931 c -6.404,0 -8.315,2.438 -8.793,6.786 h 34.122 v 6.117 h -34.122 c 0.478,4.35 2.389,6.739 8.793,6.739 h 25.902 v 6.547 h -25.902 c -11.709,0 -15.771,-5.592 -15.771,-16.345 0,-10.753 4.062,-16.344 15.771,-16.344 h 25.902 v 6.499 h -25.902 z"
   id="path226"
   inkscape:connector-curvature="0" />
		<path
   d="m 433.263,158.12 v -26.523 h -16.249 v -6.165 h 39.331 v 6.165 h -16.248 v 26.523 z"
   id="path228"
   inkscape:connector-curvature="0" />
	</g>
</g>
</svg>