<svg id="ICON" xmlns="http://www.w3.org/2000/svg" xmlns:xlink="http://www.w3.org/1999/xlink" viewBox="0 0 677.16 551.17"><defs><style>.cls-1{fill:none;}.cls-2{fill:#ed1c24;}.cls-13,.cls-3{fill:#fff;}.cls-4{clip-path:url(#clip-path);}.cls-5{fill:#ecc19c;}.cls-6{fill:#e74c3c;}.cls-7{fill:#ecf0f1;}.cls-8{fill:#34495e;}.cls-9{fill:#231f20;opacity:0.1;}.cls-10{fill:#ea7a58;}.cls-10,.cls-12{opacity:0.75;}.cls-11{fill:#2b2b2b;}.cls-12{fill:#070707;}.cls-13{opacity:0.25;}</style><clipPath id="clip-path" transform="translate(-81.72 -116.46)"><path class="cls-1" d="M483.3,608.46a216.42,216.42,0,1,0,0-432.83c-57.81,0-293.56-129.12-334.44-88.24S41.12,281.29,41.12,339.1s248.27,165.1,289.15,206A215,215,0,0,0,483.3,608.46Z"/></clipPath></defs><circle class="cls-2" cx="401.58" cy="275.59" r="275.59"/><path class="cls-3" d="M483.3,608.46a216.43,216.43,0,1,0-153-63.39A215,215,0,0,0,483.3,608.46Z" transform="translate(-81.72 -116.46)"/><g class="cls-4"><path class="cls-5" d="M523.17,408.46l-14,62.06s-72.36-6.2-91.41-45.7L462,361.46l11.84-2.89Z" transform="translate(-81.72 -116.46)"/><path class="cls-6" d="M410.32,233.32h83.92a0,0,0,0,1,0,0V336.67a0,0,0,0,1,0,0H410.32a18,18,0,0,1-18-18V251.3A18,18,0,0,1,410.32,233.32Z" transform="translate(804.86 453.53) rotate(180)"/><circle class="cls-7" cx="113.12" cy="168.54" r="30.05"/><path class="cls-7" d="M504.28,254.95h11a0,0,0,0,1,0,0V315a0,0,0,0,1,0,0h-11a10,10,0,0,1-10-10V265A10,10,0,0,1,504.28,254.95Z" transform="translate(927.81 453.53) rotate(180)"/><path class="cls-7" d="M353,233.32h39.38V336.67H353s-105.21,5.09-154.81,74.83v-253C247.75,228.23,353,233.32,353,233.32Z" transform="translate(-81.72 -116.46)"/><path class="cls-6" d="M191.08,150.78h0a7.06,7.06,0,0,1,7.07,7.06v254.3a7.07,7.07,0,0,1-7.07,7.07h0a7.07,7.07,0,0,1-7.06-7.07V157.84A7.06,7.06,0,0,1,191.08,150.78Z" transform="translate(-81.72 -116.46)"/><path class="cls-8" d="M413.83,336.67h62.22a0,0,0,0,1,0,0V356a0,0,0,0,1,0,0h-74.4a0,0,0,0,1,0,0v-7.14A12.17,12.17,0,0,1,413.83,336.67Z" transform="translate(795.99 576.2) rotate(180)"/><polygon class="cls-8" points="357.14 335.12 314.53 335.12 319.94 239.53 378.11 239.53 357.14 335.12"/><path class="cls-8" d="M390.38,451.58h48.48L442,437.15H390.38a7.21,7.21,0,0,0-7.21,7.21h0A7.21,7.21,0,0,0,390.38,451.58Z" transform="translate(-81.72 -116.46)"/><path class="cls-9" d="M515.28,285.91V305a10,10,0,0,1-10,10h-11v3.65a18,18,0,0,1-18,18H353s-105.21,5.09-154.81,74.83v.64a7.07,7.07,0,1,1-14.13,0V313a30,30,0,0,1-19.19-27.11Z" transform="translate(-81.72 -116.46)"/><path class="cls-10" d="M86.26,289.58H137.7a4.55,4.55,0,0,0,4.54-4.55h0a4.55,4.55,0,0,0-4.54-4.54H86.26A4.54,4.54,0,0,0,81.72,285h0A4.55,4.55,0,0,0,86.26,289.58Z" transform="translate(-81.72 -116.46)"/><path class="cls-10" d="M118.6,360.13,155,323.76a4.54,4.54,0,0,0,0-6.43h0a4.54,4.54,0,0,0-6.42,0L112.18,353.7a4.56,4.56,0,0,0,0,6.43h0A4.54,4.54,0,0,0,118.6,360.13Z" transform="translate(-81.72 -116.46)"/><path class="cls-10" d="M113.28,216.82l36.37,36.37a4.54,4.54,0,0,0,6.42,0h0a4.54,4.54,0,0,0,0-6.43L119.7,210.4a4.53,4.53,0,0,0-6.42,0h0A4.53,4.53,0,0,0,113.28,216.82Z" transform="translate(-81.72 -116.46)"/><path class="cls-5" d="M513.18,443.45s12.68-17.72,9.08-38.41c-.7-4-13.67-19.14-16.06-22.46-9.5-13.18-33.84-36.08-43.55-42.75-3.43-2.35-35.16-10.75-37.26-6.19-4.39,9.57,1,14.05,6,17.11s14.7,5.44,14.7,5.44l11,16.31s-29.72,38.51,4.4,65.65C488.75,459.83,513.18,443.45,513.18,443.45Z" transform="translate(-81.72 -116.46)"/><path class="cls-5" d="M387.82,370.39h0a10.88,10.88,0,0,0,7,13.66L418,391.56a10.88,10.88,0,0,0,13.67-7h0a10.87,10.87,0,0,0-7-13.66l-23.19-7.51A10.87,10.87,0,0,0,387.82,370.39Z" transform="translate(-81.72 -116.46)"/><path class="cls-5" d="M386.82,393.48h0a10.88,10.88,0,0,0,7,13.67L417,414.66a10.87,10.87,0,0,0,13.66-7h0a10.89,10.89,0,0,0-7-13.67l-23.19-7.51A10.89,10.89,0,0,0,386.82,393.48Z" transform="translate(-81.72 -116.46)"/><path class="cls-5" d="M388.81,347.29h0a10.88,10.88,0,0,0,7,13.67L419,368.47a10.9,10.9,0,0,0,13.67-7h0a10.88,10.88,0,0,0-7-13.67l-23.18-7.51A10.88,10.88,0,0,0,388.81,347.29Z" transform="translate(-81.72 -116.46)"/><path class="cls-5" d="M385.83,416.58h0a10.88,10.88,0,0,0,7,13.67L416,437.76a10.88,10.88,0,0,0,13.67-7h0a10.88,10.88,0,0,0-7-13.67L399.5,409.6A10.88,10.88,0,0,0,385.83,416.58Z" transform="translate(-81.72 -116.46)"/><rect class="cls-3" x="463.47" y="424.45" width="96.78" height="22.95" transform="translate(-186.92 586.42) rotate(-63.81)"/><rect class="cls-11" x="556.23" y="381.75" width="104.89" height="202.95" transform="translate(-175.27 699.73) rotate(-63.81)"/><rect class="cls-12" x="571.01" y="405.49" width="51.98" height="202.95" transform="translate(-203.1 702.51) rotate(-63.81)"/><path class="cls-3" d="M520.62,476a7.23,7.23,0,1,1-9.69,3.3A7.23,7.23,0,0,1,520.62,476Z" transform="translate(-81.72 -116.46)"/><path class="cls-3" d="M540.54,485.77a7.24,7.24,0,1,1-9.69,3.3A7.25,7.25,0,0,1,540.54,485.77Z" transform="translate(-81.72 -116.46)"/></g><rect class="cls-2" x="455.43" y="138.01" width="55.73" height="508.07" transform="translate(466.1 894.54) rotate(-135)"/><path class="cls-13" d="M758.75,400.22c0,1-.07,2-.11,3-.08,1.85-.17,3.7-.28,5.54h0a214.58,214.58,0,0,1-61.88,20.87,219.1,219.1,0,0,0,3.23-37.6A214.8,214.8,0,0,0,654.77,260l-128,128a219.66,219.66,0,0,1-39.41-39.41l128-128A214.73,214.73,0,0,0,483.3,175.63a219.1,219.1,0,0,0-37.6,3.23A214,214,0,0,1,466.57,117h0c1.84-.11,3.69-.2,5.54-.28l3-.11c.78,0,1.56,0,2.35-.06,1.93,0,3.88-.07,5.83-.07,152.2,0,275.58,123.38,275.58,275.58,0,1.95,0,3.89-.07,5.83Z" transform="translate(-81.72 -116.46)"/></svg>